<?xml version="1.0" encoding="UTF-8" standalone="no"?>
<!DOCTYPE svg PUBLIC "-//W3C//DTD SVG 1.1//EN" "http://www.w3.org/Graphics/SVG/1.1/DTD/svg11.dtd">
<svg width="100%" height="100%" viewBox="0 0 218 218" version="1.1" xmlns="http://www.w3.org/2000/svg" xmlns:xlink="http://www.w3.org/1999/xlink" xml:space="preserve" xmlns:serif="http://www.serif.com/" style="fill-rule:evenodd;clip-rule:evenodd;stroke-linejoin:round;stroke-miterlimit:2;">
    <g transform="matrix(1,0,0,1,-305.376,-2789.04)">
        <g transform="matrix(1,0,0,1,0,2430.42)">
            <g transform="matrix(1.15082,0,0,1.15082,179.857,284.736)">
                <path d="M297.638,135.947C297.638,96.347 265.488,64.197 225.888,64.197L180.82,64.197C141.22,64.197 109.07,96.347 109.07,135.947L109.07,181.016C109.07,220.616 141.22,252.766 180.82,252.766L225.888,252.766C265.488,252.766 297.638,220.616 297.638,181.016L297.638,135.947Z" style="fill:rgb(47,206,193);"/>
                <clipPath id="_clip1">
                    <path d="M297.638,135.947C297.638,96.347 265.488,64.197 225.888,64.197L180.82,64.197C141.22,64.197 109.07,96.347 109.07,135.947L109.07,181.016C109.07,220.616 141.22,252.766 180.82,252.766L225.888,252.766C265.488,252.766 297.638,220.616 297.638,181.016L297.638,135.947Z"/>
                </clipPath>
                <g clip-path="url(#_clip1)">
                    <g transform="matrix(1.42478,0,0,1.42478,-60.2778,-66.4133)">
                        <g>
                            <g transform="matrix(1,0,0,1,71.5708,13.9355)">
                                <path d="M205.671,144.546L45.62,242.92L25.567,202.984L30.756,50.262L50.463,53.22L205.671,144.546Z" style="fill:rgb(255,51,51);"/>
                            </g>
                            <g transform="matrix(1,0,0,1,50.3001,-15.6392)">
                                <path d="M66.974,87.821C66.974,87.821 184.332,153.284 215.616,170.735C217.15,171.59 218.1,173.209 218.099,174.965C218.099,176.721 217.147,178.339 215.613,179.193C184.314,196.624 66.891,262.018 66.891,262.018L66.891,280.196C66.891,280.196 202.41,202.188 240.086,180.501C242.069,179.359 243.293,177.246 243.296,174.958C243.299,172.669 242.081,170.553 240.101,169.406C202.458,147.599 66.974,69.112 66.974,69.112L66.974,87.821Z"/>
                            </g>
                            <g transform="matrix(1,0,0,1,26.5565,-15.6392)">
                                <path d="M66.974,87.821C66.974,87.821 184.332,153.284 215.616,170.735C217.15,171.59 218.1,173.209 218.099,174.965C218.099,176.721 217.147,178.339 215.613,179.193C184.314,196.624 66.891,262.018 66.891,262.018L66.891,280.196C66.891,280.196 202.41,202.188 240.086,180.501C242.069,179.359 243.293,177.246 243.296,174.958C243.299,172.669 242.081,170.553 240.101,169.406C202.458,147.599 66.974,69.112 66.974,69.112L66.974,87.821Z" style="fill:rgb(255,192,0);"/>
                            </g>
                            <g transform="matrix(1,0,0,1,55.5782,28.3606)">
                                <g>
                                    <g transform="matrix(1.10663e-16,1.80727,-1.80727,1.10663e-16,412.694,-82.1111)">
                                        <path d="M116.085,137.536C116.431,136.843 117.14,136.405 117.915,136.405C118.691,136.405 119.399,136.843 119.746,137.536C125.176,148.396 141.257,180.558 148.363,194.771C148.774,195.593 148.586,196.589 147.904,197.205C147.221,197.821 146.211,197.906 145.435,197.413C137.707,192.503 124.78,185.083 117.221,185.083C109.856,185.083 97.985,192.127 90.613,197.031C89.841,197.546 88.819,197.477 88.123,196.863C87.427,196.249 87.231,195.243 87.646,194.413C94.84,180.026 110.7,148.306 116.085,137.536Z" style="fill:white;"/>
                                    </g>
                                    <g transform="matrix(8.8226e-17,1.44084,-1.44084,8.8226e-17,363.639,-38.9035)">
                                        <path d="M115.619,138.467C116.054,137.597 116.943,137.048 117.915,137.048C118.888,137.048 119.777,137.597 120.212,138.467C125.819,149.683 140.283,178.611 147.532,193.109C148.046,194.137 147.814,195.382 146.963,196.156C146.112,196.929 144.851,197.043 143.875,196.433C136.06,191.576 124.291,185.083 117.221,185.083C110.367,185.083 99.61,191.184 92.209,195.982C91.239,196.616 89.964,196.52 89.099,195.749C88.233,194.977 87.993,193.722 88.511,192.685C95.826,178.054 110.065,149.575 115.619,138.467Z" style="fill:rgb(47,206,193);"/>
                                    </g>
                                    <g transform="matrix(6.62094e-17,1.08128,-1.08128,6.62094e-17,315.503,3.49413)">
                                        <path d="M114.856,139.994C115.435,138.835 116.62,138.103 117.915,138.103C119.211,138.103 120.396,138.835 120.975,139.994C126.672,151.388 138.98,176.005 146.204,190.452C146.884,191.813 146.584,193.459 145.467,194.492C144.351,195.525 142.686,195.697 141.382,194.914C133.72,190.325 123.574,185.083 117.221,185.083C111.116,185.083 101.916,189.922 94.748,194.371C93.449,195.178 91.771,195.024 90.641,193.994C89.51,192.963 89.202,191.307 89.886,189.939C97.139,175.428 109.226,151.254 114.856,139.994Z"/>
                                    </g>
                                </g>
                            </g>
                        </g>
                    </g>
                </g>
            </g>
        </g>
    </g>
</svg>
